# xmcd CD database file
#
# Track frame offsets:
#	225
#	15412
#	30465
#	45527
#	60110
#	73425
#	86310
#	100862
#	113462
#	127510
#	140072
#	152982
#	168595
#	183570
#	199740
#	214007
#	229927
#	242865
#	256325
#	274920
#	291477
#	308042
#
# Disc length: 4299 seconds
#
# Revision: 0
# Processed by: cddbd v1.5.2PL0 Copyright (c) Steve Scherf et al.
# Submitted via: CDex 1.70beta2
#
DISCID=3510c816
DTITLE=TG&TH - Cdn. - ON - The Gold and The New
DYEAR=1900
DGENRE=Country
TTITLE0=Homegrown - Double Eagle Band
TTITLE1=Basic Fact of Love - Colleen Peterson
TTITLE2=She Got Away With Love - Bobbu Lalonde
TTITLE3=This Old Heart - Jules
TTITLE4=What Do I Have to Do - Steve3 Oliver
TTITLE5=Two Hearts - Ronnie Prophet and Glory-Anne
TTITLE6=Nothing Good About Goodbye - Gilles Godard and Kelita
TTITLE7=Don't Say You're Not Stayin' - Hal Bruce
TTITLE8=You Have Filled My Days With Music - Eddie Eastman
TTITLE9=Tell Me About It - Susan Jacks
TTITLE10=Snow Covered Mountains - Ray Griff
TTITLE11=Firefly - Erik Johnson
TTITLE12=Stay At Home Lady - Kelita
TTITLE13=Easier Than starting Over - Jim and Jon Hager
TTITLE14=I'll Hold You forever - Bruce Golden
TTITLE15=Don't Hang Up - Debbie Drummond
TTITLE16=Too Good Not to Be True - Royce Ryan
TTITLE17=Clap Your Hands - joey Conrad
TTITLE18=Leave Your Memories At the Door - Marty Gillian
TTITLE19=I Still Think of You - Colleen Peterson and Gilles Godard
TTITLE20=Lady You're the Once In My Life - Gerry Corvell
TTITLE21=Let's Do It Again - Bobby Lalonde
EXTD=
EXTT0=
EXTT1=
EXTT2=
EXTT3=
EXTT4=
EXTT5=
EXTT6=
EXTT7=
EXTT8=
EXTT9=
EXTT10=
EXTT11=
EXTT12=
EXTT13=
EXTT14=
EXTT15=
EXTT16=
EXTT17=
EXTT18=
EXTT19=
EXTT20=
EXTT21=
PLAYORDER=
